<?xml version="1.0" encoding="UTF-8"?>
<svg xmlns="http://www.w3.org/2000/svg" viewBox="0 0 1024 1024" width="1024" height="1024">
<path d="M152.96 510.99C155.13 505.42 153.6 497.65 153.67 491.5C153.72 487.45 154.32 483.61 152.99 479.9C151.69 468.84 154.14 456.44 155.74 445.44C159.29 421.05 165.11 397.44 173.71 374.27C212.01 271.1 300.39 191.35 405.28 159.71C423.98 154.07 443.11 149.41 462.5 147.07C509.73 141.36 557.19 144.04 603.31 155.23C719.27 183.36 819.18 273.81 855.84 387.64C866.93 422.07 872.55 457.27 872.8 493.5C873.09 534.57 866.92 576.65 852.73 615.25C838.42 654.21 818.02 690.09 791.46 721.93C689.73 843.83 510.49 876.58 366.78 816.7C273.5 777.83 200.63 698.29 168.81 602.61C161.83 581.65 157.72 560.34 154.75 538.55C153.99 532.99 151.43 515.47 152.96 510.99ZM695.25 275.57C695.57 275.21 695.9 274.86 696.22 274.5C694.46 273.41 692.69 272.33 690.93 271.24C687.42 269.64 684.51 266.41 681.4 264.06C676.83 260.59 672.04 257.41 667.33 254.15C650.15 242.26 630.86 232.51 611.3 225.23C531.57 195.56 439.73 202.38 366.98 247.48C353.79 255.67 340.38 264.67 329.18 275.5C333.62 279.7 338.06 283.91 342.5 288.11C347.9 284.21 352.72 279.51 358.09 275.55C370.15 266.68 383.3 258.85 396.78 252.28C459.78 221.56 535.42 217 601.34 241.16C621.74 248.63 641.46 258.75 659.36 271.08C664.85 274.86 670.19 278.9 675.39 283.06C677.85 285.02 679.7 287.44 682.5 288.82C686.75 284.4 691 279.98 695.25 275.57ZM653.67 316.5C640.94 304.43 624.85 294.92 609.04 287.47C556.52 262.71 497.01 256.94 441.7 276.25C425.05 282.07 407.79 289.61 393.18 299.65C385.42 304.99 378.18 311.53 370.21 316.5C374.3 320.32 378.4 324.13 382.5 327.95C388.6 324.22 394.12 319.5 400.13 315.59C410.05 309.15 420.87 303.88 431.72 299.2C478.52 279.01 532.19 277.88 580.23 294.31C595.15 299.41 609.51 306.3 622.95 314.54C629.56 318.61 635.63 323.8 642.5 327.37C646.22 323.75 649.94 320.12 653.67 316.5ZM517.93 331.5C522.14 328.67 525.94 326.34 527.73 321.3C532.21 308.68 522.78 296.31 509.5 297.09C497.82 297.78 491.35 309.34 494.41 320.19C496.06 326.02 500.66 328.07 504.91 331.5C491.3 367.5 477.69 403.5 464.08 439.5C469.88 439.85 479.83 435.14 485.72 433.23C502.72 427.7 519.53 421.59 536.5 416.05C539.17 422.66 541.83 429.27 544.5 435.88C550.41 437.09 556.31 438.29 562.22 439.5C547.46 403.5 532.69 367.5 517.93 331.5ZM483.2 321.06C475.66 320.83 468.42 323.49 461.3 325.78C447.57 330.19 434.3 336.82 422.18 344.65C417.8 347.48 413.82 350.83 409.34 353.5C413.4 357.37 417.45 361.24 421.5 365.11C425.03 364.02 427.95 361.55 431.13 359.6C436.8 356.13 442.68 353.01 448.67 350.16C455.08 347.1 461.96 344.43 468.71 342.23C473.4 340.7 478.87 339.99 483.2 337.81C483.2 332.23 483.2 326.64 483.2 321.06ZM541.5 320.92C540.76 326.45 540.03 331.97 539.29 337.5C550.72 341.35 562.26 344.06 573.32 349.17C579.77 352.15 586.33 355.31 592.33 359.15C595.39 361.1 598.31 363.37 601.5 365.01C605.65 361.17 609.8 357.34 613.96 353.5C598.17 341.39 580.62 331.95 561.67 325.8C555.1 323.67 548.44 321.21 541.5 320.92ZM454.17 584.5C457.87 581.78 462.7 580.5 466.78 578.31C476.16 573.28 484.76 566.01 490.43 556.93C495.82 548.29 498.16 538.46 499.16 528.5C502.41 496.04 484.19 470.46 454.34 459.19C433.46 451.31 410.52 452.65 388.54 452.51C357.97 452.3 327.29 451.82 296.73 452.5C296.73 466.58 296.73 480.65 296.73 494.73C301.69 494.73 306.64 494.73 311.6 494.73C311.6 547.54 311.6 600.36 311.6 653.17C306.42 653.17 301.25 653.17 296.07 653.17C296.07 667.22 296.07 681.27 296.07 695.31C329.34 695.31 362.62 695.31 395.9 695.31C395.9 681.28 395.9 667.24 395.9 653.2C390.82 653.2 385.74 653.2 380.67 653.2C380.67 635.12 380.67 617.04 380.67 598.97C386.61 598.97 392.56 598.97 398.5 598.97C412.83 631.06 427.17 663.16 441.5 695.25C466.51 695.25 491.52 695.25 516.53 695.25C516.53 681.22 516.53 667.2 516.53 653.17C508.52 653.17 500.51 653.17 492.5 653.17C479.72 630.28 466.94 607.39 454.17 584.5ZM599.94 452.44C573.64 452.44 547.34 452.44 521.04 452.44C521.04 466.54 521.04 480.64 521.04 494.74C524.53 494.74 528.01 494.74 531.5 494.74C533.44 504.95 532.03 517.92 532.02 528.5C532 549.5 532.06 570.5 532.03 591.5C531.96 628.48 529.57 666.14 566.22 687.32C572.63 691.03 579.52 693.76 586.64 695.76C598.51 699.09 611.17 700.43 623.5 700.59C633.78 700.72 644.49 699.19 654.45 696.81C662.53 694.88 670.49 692.32 677.85 688.37C719.75 665.88 713.87 620.98 713.79 580.5C713.73 551.99 714.6 523.35 713.62 494.86C717.75 494.86 721.88 494.86 726.01 494.86C726.01 480.72 726.01 466.58 726.01 452.45C699.44 452.45 672.88 452.45 646.31 452.45C646.31 466.53 646.31 480.61 646.31 494.69C649.71 494.69 653.1 494.69 656.5 494.69C657.44 499.47 657.02 504.58 657.03 509.5C657.05 518.17 657.02 526.83 657.03 535.5C657.05 556.83 657.04 578.17 657.03 599.5C657.02 620.26 659.77 643.81 634.46 649.95C630.18 650.99 625.91 651.18 621.5 651.13C617.77 651.09 614.31 650.67 610.71 649.75C589.14 644.29 589.62 623.69 589.7 605.5C589.8 584.5 589.63 563.5 589.66 542.5C589.68 526.65 590.27 510.66 589.5 494.83C592.98 494.83 596.46 494.83 599.94 494.83C599.94 480.7 599.94 466.57 599.94 452.44ZM380.67 495.13C393.67 492.74 414.84 494.48 425.86 502.6C440.65 513.5 440.5 539.39 425.88 550.41C413.24 559.94 395.72 559.55 380.67 558.5C380.67 537.38 380.67 516.25 380.67 495.13Z" fill="#e31539" fill-rule="evenodd" stroke="#e31539" stroke-width="0.25" stroke-linejoin="round"/>
<path d="M517.93 331.5C532.69 367.5 547.46 403.5 562.22 439.5C556.31 438.29 550.41 437.09 544.5 435.88C541.83 429.27 539.17 422.66 536.5 416.05C519.53 421.59 502.72 427.7 485.72 433.23C479.83 435.14 469.88 439.85 464.08 439.5C477.69 403.5 491.3 367.5 504.91 331.5C500.66 328.07 496.06 326.02 494.41 320.19C491.35 309.34 497.82 297.78 509.5 297.09C522.78 296.31 532.21 308.68 527.73 321.3C525.94 326.34 522.14 328.67 517.93 331.5ZM517.54 367.5C515.42 361.17 513.29 354.83 511.17 348.5C507.95 358 504.72 367.5 501.5 377.01C506.85 373.84 512.19 370.67 517.54 367.5ZM521.5 376.88C516.26 378.25 507.21 383.72 503.28 387.5C509.53 391.06 515.84 394.7 521.9 398.58C524.98 400.55 528.52 403.44 532.01 403.5C528.51 394.63 525 385.75 521.5 376.88ZM496.5 395.92C493.17 405.29 489.83 414.66 486.5 424.02C497.4 419.52 508.3 415.01 519.2 410.5C511.63 405.64 504.07 400.78 496.5 395.92Z" fill="#ffffff" fill-rule="evenodd" stroke="#ffffff" stroke-width="0.25" stroke-linejoin="round"/>
<path d="M690.93 271.24C692.69 272.33 694.46 273.41 696.22 274.5C695.9 274.86 695.57 275.21 695.25 275.57C693.81 274.12 692.37 272.68 690.93 271.24ZM517.54 367.5C512.19 370.67 506.85 373.84 501.5 377.01C504.72 367.5 507.95 358 511.17 348.5C513.29 354.83 515.42 361.17 517.54 367.5ZM521.5 376.88C525 385.75 528.51 394.63 532.01 403.5C528.52 403.44 524.98 400.55 521.9 398.58C515.84 394.7 509.53 391.06 503.28 387.5C507.21 383.72 516.26 378.25 521.5 376.88ZM496.5 395.92C504.07 400.78 511.63 405.64 519.2 410.5C508.3 415.01 497.4 419.52 486.5 424.02C489.83 414.66 493.17 405.29 496.5 395.92ZM152.99 479.9C154.32 483.61 153.72 487.45 153.67 491.5C153.6 497.65 155.13 505.42 152.96 510.99C150.78 505.42 152.04 494.79 152.07 488.5C152.09 485.56 151.81 482.39 152.99 479.9Z" fill="#df0313" fill-rule="evenodd" stroke="#df0313" stroke-width="0.25" stroke-linejoin="round"/>
</svg>