<?xml version="1.0" encoding="UTF-8"?>
<svg xmlns="http://www.w3.org/2000/svg" viewBox="0 0 721 721" width="721" height="721">
<path d="M720.83 349.15C720.83 356.78 720.83 364.41 720.83 372.04C718.96 378.91 719.85 392.38 718.93 400.5C717.3 414.91 714.64 429.14 711.77 443.34C709.96 452.31 706.88 460.98 704.33 469.75C693.04 508.52 672.82 544.95 648.43 576.91C520.92 744.01 252.28 757 104.87 609.61C62.45 567.18 29.45 515.39 13.22 457.3C8.83 441.57 5.45 425.6 3.12 409.47C2.21 403.2 1.72 396.8 1.11 390.5C0.74 386.72 1.45 382.58 0.17 379.05C0.17 367.73 0.17 356.42 0.17 345.1C2.19 339.06 1.28 328.4 2.21 321.55C4.45 305.1 7.25 288.83 11.25 272.71C24.18 220.54 52.09 170.32 88.03 130.55C138.4 74.79 206.96 33.7 280.7 18.27C397.78 -6.21 516.77 24.82 606.09 104.42C617.86 114.91 629.31 125.99 639.4 138.14C673.56 179.3 700.08 229.22 711.81 281.6C714.75 294.74 717.44 308.12 718.93 321.5C719.8 329.32 719 342.58 720.83 349.15ZM543.11 142.5C539.55 136.11 526.91 128.3 520.65 123.9C500.58 109.76 478.19 97.2 454.69 89.79C448.21 87.74 441.93 84.93 435.33 83.26C418.92 79.11 402.28 76.08 385.48 74.18C370.64 72.5 355.35 72.86 340.5 73.92C295.96 77.1 253.18 89.8 214.99 113.49C201.79 121.67 188.38 130.67 177.18 141.5C181.62 145.7 186.06 149.9 190.5 154.11C195.9 150.2 200.72 145.51 206.09 141.55C218.14 132.68 231.3 124.85 244.77 118.28C307.78 87.56 383.42 83 449.34 107.16C469.74 114.63 489.46 124.75 507.36 137.07C512.85 140.86 518.19 144.9 523.39 149.06C525.85 151.02 527.7 153.44 530.5 154.81C534.7 150.71 538.91 146.6 543.11 142.5ZM501.66 182.5C488.94 170.43 472.85 160.93 457.04 153.47C404.53 128.71 345 122.94 289.7 142.25C273.05 148.07 255.79 155.61 241.19 165.65C233.42 170.99 226.18 177.54 218.21 182.5C222.31 186.32 226.4 190.13 230.5 193.95C236.6 190.22 242.12 185.5 248.13 181.59C258.05 175.15 268.87 169.88 279.72 165.2C326.52 145 380.19 143.88 428.24 160.3C443.16 165.41 457.51 172.29 470.95 180.54C477.56 184.61 483.63 189.8 490.5 193.37C494.22 189.74 497.94 186.12 501.66 182.5ZM365.93 197.5C370.14 194.67 373.94 192.34 375.73 187.3C380.2 174.68 370.78 162.31 357.5 163.09C345.82 163.78 339.35 175.34 342.41 186.19C344.06 192.02 348.66 194.07 352.91 197.5C339.3 233.5 325.69 269.5 312.08 305.5C317.89 305.84 327.83 301.14 333.72 299.23C350.72 293.7 367.53 287.59 384.5 282.05C387.17 288.66 389.83 295.27 392.5 301.88C398.41 303.09 404.31 304.29 410.22 305.5C395.45 269.5 380.69 233.5 365.93 197.5ZM331.19 187.06C323.66 186.83 316.42 189.49 309.3 191.78C295.57 196.19 282.3 202.83 270.18 210.65C265.8 213.48 261.82 216.83 257.34 219.5C261.4 223.37 265.45 227.24 269.5 231.1C273.03 230.02 275.95 227.54 279.13 225.6C284.79 222.13 290.68 219.01 296.67 216.15C303.08 213.1 309.96 210.43 316.71 208.23C321.4 206.7 326.87 205.99 331.19 203.81C331.19 198.22 331.19 192.64 331.19 187.06ZM389.5 186.93C388.77 192.45 388.03 197.98 387.3 203.5C398.72 207.35 410.26 210.05 421.32 215.17C427.77 218.15 434.33 221.31 440.33 225.14C443.39 227.1 446.31 229.37 449.5 231.01C453.65 227.17 457.8 223.34 461.96 219.5C446.17 207.39 428.62 197.95 409.67 191.8C403.1 189.67 396.44 187.21 389.5 186.93ZM359.5 214.3C361.55 220.7 363.6 227.1 365.65 233.5C360.27 236.69 354.88 239.88 349.5 243.07C350.03 237.34 353.75 229.02 355.7 223.28C356.73 220.26 357.27 216.38 359.5 214.3ZM369.5 242.82C373.02 251.71 376.55 260.61 380.07 269.5C376.51 269.51 373.01 266.63 369.87 264.62C363.79 260.72 357.45 257.09 351.18 253.5C355.18 249.68 364.18 244.24 369.5 242.82ZM344.5 261.86C352.09 266.74 359.69 271.62 367.28 276.5C356.35 281.03 345.43 285.56 334.5 290.08C337.83 280.68 341.17 271.27 344.5 261.86ZM302.16 450.5C305.87 447.78 310.7 446.49 314.77 444.31C324.16 439.28 332.76 432.01 338.43 422.93C343.82 414.29 346.16 404.46 347.16 394.5C350.4 362.04 332.2 336.47 302.34 325.2C281.46 317.31 258.53 318.65 236.54 318.51C205.97 318.31 175.29 317.84 144.73 318.5C144.73 332.58 144.73 346.65 144.73 360.73C149.69 360.73 154.66 360.73 159.62 360.73C159.62 413.55 159.62 466.38 159.62 519.21C154.44 519.21 149.25 519.21 144.07 519.21C144.07 533.24 144.07 547.28 144.07 561.31C177.35 561.31 210.62 561.31 243.89 561.31C243.89 547.28 243.89 533.24 243.89 519.2C238.82 519.2 233.74 519.2 228.67 519.2C228.67 501.12 228.67 483.04 228.67 464.96C234.61 464.96 240.56 464.96 246.5 464.96C260.83 497.06 275.17 529.16 289.5 561.25C314.51 561.25 339.52 561.25 364.52 561.25C364.52 547.22 364.52 533.2 364.52 519.17C356.52 519.17 348.51 519.17 340.5 519.17C327.72 496.28 314.94 473.39 302.16 450.5ZM447.94 318.44C421.64 318.44 395.34 318.44 369.04 318.44C369.04 332.54 369.04 346.64 369.04 360.74C372.53 360.74 376.01 360.74 379.5 360.74C381.44 370.95 380.03 383.92 380.02 394.5C380.01 415.5 380.06 436.5 380.03 457.5C379.96 494.47 377.57 532.14 414.22 553.32C420.63 557.03 427.52 559.76 434.64 561.76C446.51 565.09 459.18 566.43 471.51 566.59C481.78 566.72 492.49 565.19 502.45 562.81C510.53 560.88 518.49 558.32 525.85 554.37C567.75 531.88 561.87 486.98 561.79 446.5C561.72 417.99 562.6 389.35 561.61 360.86C565.74 360.86 569.87 360.86 574 360.86C574 346.72 574 332.59 574 318.45C547.44 318.45 520.88 318.45 494.32 318.45C494.32 332.53 494.32 346.61 494.32 360.69C497.71 360.69 501.11 360.69 504.5 360.69C505.44 365.47 505.02 370.58 505.03 375.5C505.05 384.17 505.02 392.83 505.03 401.5C505.05 422.83 505.04 444.17 505.03 465.5C505.02 486.26 507.77 509.81 482.46 515.95C478.18 516.99 473.91 517.18 469.5 517.13C465.77 517.09 462.31 516.67 458.71 515.75C437.14 510.29 437.62 489.69 437.7 471.5C437.8 450.5 437.63 429.5 437.66 408.5C437.68 392.65 438.26 376.66 437.5 360.83C440.98 360.83 444.46 360.83 447.94 360.83C447.94 346.7 447.94 332.57 447.94 318.44ZM228.67 361.12C241.67 358.74 262.84 360.48 273.86 368.6C288.65 379.5 288.5 405.39 273.88 416.41C261.24 425.94 243.71 425.56 228.67 424.5C228.67 403.37 228.67 382.25 228.67 361.12Z" fill="#e31639" fill-rule="evenodd" stroke="#e31639" stroke-width="0.25" stroke-linejoin="round"/>
<path d="M365.93 197.5C380.69 233.5 395.45 269.5 410.22 305.5C404.31 304.29 398.41 303.09 392.5 301.88C389.83 295.27 387.17 288.66 384.5 282.05C367.53 287.59 350.72 293.7 333.72 299.23C327.83 301.14 317.89 305.84 312.08 305.5C325.69 269.5 339.3 233.5 352.91 197.5C348.66 194.07 344.06 192.02 342.41 186.19C339.35 175.34 345.82 163.78 357.5 163.09C370.78 162.31 380.2 174.68 375.73 187.3C373.94 192.34 370.14 194.67 365.93 197.5ZM359.5 214.3C357.27 216.38 356.73 220.26 355.7 223.28C353.75 229.02 350.03 237.34 349.5 243.07C354.88 239.88 360.27 236.69 365.65 233.5C363.6 227.1 361.55 220.7 359.5 214.3ZM369.5 242.82C364.18 244.24 355.18 249.68 351.18 253.5C357.45 257.09 363.79 260.72 369.87 264.62C373.01 266.63 376.51 269.51 380.07 269.5C376.55 260.61 373.02 251.71 369.5 242.82ZM344.5 261.86C341.17 271.27 337.83 280.68 334.5 290.08C345.43 285.56 356.35 281.03 367.28 276.5C359.69 271.62 352.09 266.74 344.5 261.86Z" fill="#ffffff" fill-rule="evenodd" stroke="#ffffff" stroke-width="0.25" stroke-linejoin="round"/>
</svg>